<?xml version="1.0" encoding="utf-8"?>
<svg width="368" height="368" viewBox="0 0 368 368" xmlns="http://www.w3.org/2000/svg">
  <g fill="#9a0000" transform="translate(-7.653 61.175)">
    <path d="M144.50736 61.05436l94.29105-.361268c0 0 3.4114-46.242355-47.32616-46.242355-24.59124 0-46.96489 23.121177-46.96489 46.603623zM61.05436 9.7542469l-48.409966 0 0 226.1540231 55.274066.36127c0 0-93.207249-102.60023-6.8641-226.5152931z" />
    <path d="m 370.66138,9.3929785 -0.72254,226.8765615 -44.79728,0 c 0,0 28.17894,-32.51416 31.79162,-45.51982 -34.47397,-17.70599 -53.82899,-26.73386 -53.82899,-26.73386 0,0 -25.33111,56.20958 -84.89807,58.88674 -64.30578,2.89015 -78.75652,-75.5051 -76.95017,-109.82559 76.75572,0 115.94155,1.08381 207.72933,1.08381 1.80634,-2.52888 5.90355,-70.038966 -24.92752,-104.4065731 5.34455,-0.4815024 46.60362,-0.3612684 46.60362,-0.3612684 z" />
  </g>
</svg>
