<?xml version="1.0" encoding="UTF-8"?>
<svg xmlns="http://www.w3.org/2000/svg" viewBox="0 0 110.4211 109.8461">
  <defs>
    <linearGradient id="a" x1="55.54918" x2="110.14919" y1="77.07027" y2="131.85291" gradientUnits="userSpaceOnUse">
      <stop offset="0" stop-color="#387eb8"/>
      <stop offset="1" stop-color="#366994"/>
    </linearGradient>
    <linearGradient id="b" x1="89.13675" x2="147.77737" y1="111.92053" y2="168.1012" gradientUnits="userSpaceOnUse">
      <stop offset="0" stop-color="#ffe052"/>
      <stop offset="1" stop-color="#ffc331"/>
    </linearGradient>
  </defs>
  <path fill="url(#a)" d="M54.8125 0C26.78077 0 28.53125 12.15625 28.53125 12.15625L28.5625 24.75h26.75v3.78125h-37.375S0 26.49697 0 54.78125C0 83.06552 15.65625 82.0625 15.65625 82.0625H25v-13.125s-.50365-15.65625 15.40625-15.65625H66.9375s14.90625.24096 14.90625-14.40625V14.65625S84.10693 0 54.8125 0zm-14.75 8.46875c2.66143 0 4.8125 2.15107 4.8125 4.8125s-2.15107 4.8125-4.8125 4.8125-4.8125-2.15107-4.8125-4.8125 2.15107-4.8125 4.8125-4.8125z"/>
  <path fill="url(#b)" d="M55.6086 109.8461c28.03174 0 26.28125-12.15625 26.28125-12.15625L81.8586 85.0961h-26.75v-3.78125h37.375s17.9375 2.03427 17.9375-26.25c0-28.28428-15.65625-27.28126-15.65625-27.28126H85.4211v13.125s.50366 15.65624-15.40625 15.65624H43.4836s-14.90625-.24096-14.90625 14.40626v24.21875S26.31417 109.8461 55.6086 109.8461zm14.75-8.46875c-2.66143 0-4.8125-2.15107-4.8125-4.8125s2.15107-4.8125 4.8125-4.8125 4.8125 2.15107 4.8125 4.8125-2.15107 4.8125-4.8125 4.8125z"/>
</svg>
